<svg xmlns="http://www.w3.org/2000/svg" style="fill-rule:evenodd; clip-rule:evenodd" viewBox="0 0 300 300">
  <style>
    path {
      fill: black;
    }

    @media (prefers-color-scheme: dark) {
      path: {
        fill: white;
      }
    }
  </style>
  <path  d="M150 0c82.84,0 150,67.16 150,150 0,82.84 -67.16,150 -150,150 -82.84,0 -150,-67.16 -150,-150 0,-82.84 67.16,-150 150,-150zm13.21 206.08l-41.39 0 0 33.92 -23.64 0 0 -33.92 -25.56 0 0 -19.5 25.56 0 0 -16.96 -25.56 0 0 -19.49 25.56 0 0 -90.13 66.42 0c34.39,0 62.78,17.43 62.78,54.56 0,38.59 -26.52,54.91 -62.44,55.06l-43.12 0 0 16.96 41.39 0 0 19.5zm-41.39 -55.95l42.78 0c23.54,0 39.16,-10.5 39.16,-35.4 0,-22.79 -16.78,-35.08 -38.44,-35.24l-43.5 0 0 70.64z"/>
</svg>